<svg width="80" height="80" viewBox="0 0 80 80" fill="none" xmlns="http://www.w3.org/2000/svg">
<g clip-path="url(#clip0_31_46304)">
<path d="M80 40C80 62.0913 62.0913 80 40 80C17.9087 80 0 62.0913 0 40C0 40.0094 40 0.00453125 40 0C62.0913 0 80 17.9087 80 40Z" fill="#0052B4"/>
<path d="M39.8926 40.0013H39.9998C39.9998 39.9649 39.9998 39.9302 39.9998 39.894C39.9641 39.9299 39.9284 39.9656 39.8926 40.0013Z" fill="#F0F0F0"/>
<path d="M39.9992 20.872C39.9992 13.8337 39.9992 9.22166 39.9992 0.00244141H39.9925C17.9043 0.00603516 -0.000732422 17.9131 -0.000732422 40.0023H20.8688V28.2504L32.6207 40.0023H39.8924C39.9282 39.9667 39.9638 39.931 39.9994 39.8952C39.9994 37.2004 39.9994 34.7959 39.9994 32.624L28.2474 20.872H39.9992Z" fill="#F0F0F0"/>
<path d="M20.2372 5.21924C13.9811 8.78158 8.78012 13.9825 5.21777 20.2386V40.0019H15.6526V15.6542V15.6541H40.0004C40.0004 12.363 40.0004 9.22768 40.0004 5.21924H20.2372Z" fill="#D80027"/>
<path d="M40.0014 35.0834L25.79 20.8721H20.8711C20.8711 20.872 20.8711 20.8721 20.8711 20.8721L40.0012 40.0023H40.0014C40.0014 40.0023 40.0014 36.6109 40.0014 35.0834Z" fill="#D80027"/>
<path d="M24.1253 46.9551L26.3206 51.5454L31.2779 50.3996L29.0579 54.978L33.0445 58.1395L28.0809 59.2582L28.0948 64.3463L24.1253 61.163L20.1559 64.3463L20.1698 59.2582L15.2061 58.1395L19.1928 54.978L16.9725 50.3996L21.9301 51.5454L24.1253 46.9551Z" fill="#F0F0F0"/>
<path d="M59.8904 55.6514L60.9881 57.9465L63.4668 57.3736L62.3567 59.6628L64.3501 61.2436L61.8682 61.8029L61.8751 64.347L59.8904 62.7553L57.9057 64.347L57.9126 61.8029L55.4309 61.2436L57.4242 59.6628L56.3142 57.3736L58.7928 57.9465L59.8904 55.6514Z" fill="#F0F0F0"/>
<path d="M49.6782 31.3047L50.7757 33.6L53.2544 33.0269L52.1444 35.3161L54.1377 36.8969L51.656 37.4563L51.6627 40.0003L49.6782 38.4086L47.6935 40.0003L47.7002 37.4563L45.2185 36.8969L47.2118 35.3161L46.1018 33.0269L48.5805 33.6L49.6782 31.3047Z" fill="#F0F0F0"/>
<path d="M59.8904 17.3921L60.9881 19.6874L63.4668 19.1144L62.3568 21.4037L64.35 22.9843L61.8682 23.5438L61.8751 26.0879L59.8904 24.4962L57.9057 26.0879L57.9126 23.5438L55.4309 22.9843L57.424 21.4037L56.3142 19.1144L58.7928 19.6874L59.8904 17.3921Z" fill="#F0F0F0"/>
<path d="M68.8073 27.8262L69.9048 30.1215L72.3836 29.5484L71.2736 31.8376L73.2669 33.4184L70.785 33.9779L70.7919 36.5218L68.8073 34.9302L66.8227 36.5218L66.8294 33.9779L64.3477 33.4184L66.3409 31.8376L65.2309 29.5484L67.7095 30.1215L68.8073 27.8262Z" fill="#F0F0F0"/>
<path d="M62.4308 40.001L63.2941 42.6582H66.0881L63.8277 44.3005L64.6913 46.9575L62.4308 45.3154L60.1705 46.9575L61.0338 44.3005L58.7734 42.6582H61.5673L62.4308 40.001Z" fill="#F0F0F0"/>
</g>
<defs>
<clipPath id="clip0_31_46304">
<rect width="80" height="80" fill="white"/>
</clipPath>
</defs>
</svg>
