<svg width="80" height="80" viewBox="0 0 80 80" fill="none" xmlns="http://www.w3.org/2000/svg">
<g clip-path="url(#clip0_31_46280)">
<path d="M40 80C62.0914 80 80 62.0914 80 40C80 17.9086 62.0914 0 40 0C17.9086 0 0 17.9086 0 40C0 62.0914 17.9086 80 40 80Z" fill="#F0F0F0"/>
<path d="M80.0028 40.0031C80.0028 24.1447 70.7739 10.4422 57.394 3.97217V76.0339C70.7739 69.564 80.0028 55.8615 80.0028 40.0031Z" fill="#D80027"/>
<path d="M0.00146484 40.0011C0.00146484 55.8596 9.23037 69.5621 22.6102 76.0321V3.97021C9.23037 10.4402 0.00146484 24.1427 0.00146484 40.0011Z" fill="#D80027"/>
<path d="M46.9584 45.2204L53.9148 41.7421L50.4367 40.003V36.5247L43.4801 40.003L46.9584 33.0464H43.4801L40.0018 27.8291L36.5236 33.0464H33.0453L36.5236 40.003L29.567 36.5247V40.003L26.0889 41.7421L33.0453 45.2204L31.3062 48.6986H38.2628V53.916H41.7409V48.6986H48.6975L46.9584 45.2204Z" fill="#D80027"/>
</g>
<defs>
<clipPath id="clip0_31_46280">
<rect width="80" height="80" fill="white"/>
</clipPath>
</defs>
</svg>
