<svg width="80" height="80" viewBox="0 0 80 80" fill="none" xmlns="http://www.w3.org/2000/svg">
<g clip-path="url(#clip0_31_46267)">
<path d="M2.48755 53.9161C8.13927 69.148 22.801 80.0031 39.9996 80.0031C57.1982 80.0031 71.8599 69.148 77.5116 53.9161L39.9996 50.438L2.48755 53.9161Z" fill="#FFDA44"/>
<path d="M39.9996 0.00244141C22.801 0.00244141 8.13927 10.8574 2.48755 26.0895L39.9996 29.5676L77.5116 26.0893C71.8599 10.8574 57.1982 0.00244141 39.9996 0.00244141Z" fill="black"/>
<path d="M2.48821 26.0859C0.8804 30.4192 0.000244141 35.1061 0.000244141 39.9989C0.000244141 44.8917 0.8804 49.5786 2.48821 53.9119H77.5124C79.1202 49.5786 80.0002 44.8917 80.0002 39.9989C80.0002 35.1061 79.1202 30.4192 77.5123 26.0859H2.48821Z" fill="#D80027"/>
</g>
<defs>
<clipPath id="clip0_31_46267">
<rect width="80" height="80" fill="white"/>
</clipPath>
</defs>
</svg>
