<svg width="80" height="80" viewBox="0 0 80 80" fill="none" xmlns="http://www.w3.org/2000/svg">
<g clip-path="url(#clip0_31_46317)">
<path d="M0 39.9977C0 44.8905 0.880156 49.5774 2.48797 53.9106L40 57.3889L77.512 53.9106C79.1198 49.5774 80 44.8905 80 39.9977C80 35.1049 79.1198 30.418 77.512 26.0847L40 22.6064L2.48797 26.0847C0.880156 30.418 0 35.1049 0 39.9977Z" fill="#FFDA44"/>
<path d="M77.517 26.0861C71.8653 10.8542 57.2035 -0.000976562 40.0049 -0.000976562C22.8064 -0.000976562 8.14464 10.8542 2.49292 26.0861H77.517Z" fill="#D80027"/>
<path d="M2.48975 53.9136C8.14146 69.1455 22.8032 80.0006 40.0018 80.0006C57.2004 80.0006 71.8621 69.1455 77.5138 53.9136H2.48975Z" fill="#D80027"/>
</g>
<defs>
<clipPath id="clip0_31_46317">
<rect width="80" height="80" fill="white"/>
</clipPath>
</defs>
</svg>
