<svg width="80" height="80" viewBox="0 0 80 80" fill="none" xmlns="http://www.w3.org/2000/svg">
<g clip-path="url(#clip0_31_46329)">
<path d="M40 80C62.0914 80 80 62.0914 80 40C80 17.9086 62.0914 0 40 0C17.9086 0 0 17.9086 0 40C0 62.0914 17.9086 80 40 80Z" fill="#F0F0F0"/>
<path d="M79.9996 39.9998C79.9996 22.8012 69.1446 8.13951 53.9126 2.48779V77.512C69.1446 71.8601 79.9996 57.1984 79.9996 39.9998Z" fill="#D80027"/>
<path d="M0.00146484 40.0023C0.00146484 57.2009 10.8566 71.8626 26.0885 77.5143V2.49023C10.8566 8.14195 0.00146484 22.8037 0.00146484 40.0023Z" fill="#0052B4"/>
</g>
<defs>
<clipPath id="clip0_31_46329">
<rect width="80" height="80" fill="white"/>
</clipPath>
</defs>
</svg>
