<svg width="80" height="80" viewBox="0 0 80 80" fill="none" xmlns="http://www.w3.org/2000/svg">
<g clip-path="url(#clip0_31_46255)">
<path d="M40 80C62.0914 80 80 62.0914 80 40C80 17.9086 62.0914 0 40 0C17.9086 0 0 17.9086 0 40C0 62.0914 17.9086 80 40 80Z" fill="#F0F0F0"/>
<path d="M8.26895 15.6436C5.12692 19.7315 2.7577 24.4432 1.37817 29.5618H22.1872L8.26895 15.6436Z" fill="#0052B4"/>
<path d="M78.6235 29.5622C77.2439 24.4437 74.8746 19.732 71.7327 15.644L57.8147 29.5622H78.6235Z" fill="#0052B4"/>
<path d="M1.37817 50.4341C2.75786 55.5525 5.12708 60.2642 8.26896 64.352L22.1868 50.4341H1.37817Z" fill="#0052B4"/>
<path d="M64.3517 8.26594C60.2638 5.12391 55.5522 2.75469 50.4336 1.375V22.1839L64.3517 8.26594Z" fill="#0052B4"/>
<path d="M15.6465 71.7254C19.7345 74.8675 24.4462 77.2367 29.5646 78.6164V57.8076L15.6465 71.7254Z" fill="#0052B4"/>
<path d="M29.5645 1.375C24.446 2.75469 19.7343 5.1239 15.6465 8.26578L29.5645 22.1837V1.375Z" fill="#0052B4"/>
<path d="M50.4336 78.6164C55.552 77.2367 60.2637 74.8675 64.3516 71.7256L50.4336 57.8076V78.6164Z" fill="#0052B4"/>
<path d="M57.8147 50.4341L71.7327 64.3522C74.8746 60.2644 77.2439 55.5525 78.6235 50.4341H57.8147Z" fill="#0052B4"/>
<path d="M79.6614 34.7827H45.2177H45.2175V0.338594C43.5095 0.11625 41.7683 0 40 0C38.2314 0 36.4905 0.11625 34.7827 0.338594V34.7823V34.7825H0.338594C0.11625 36.4905 0 38.2317 0 40C0 41.7686 0.11625 43.5095 0.338594 45.2173H34.7823H34.7825V79.6614C36.4905 79.8838 38.2314 80 40 80C41.7683 80 43.5095 79.8839 45.2173 79.6614V45.2177V45.2175H79.6614C79.8838 43.5095 80 41.7686 80 40C80 38.2317 79.8838 36.4905 79.6614 34.7827Z" fill="#D80027"/>
<path d="M50.4348 50.4377L68.2842 68.287C69.1051 67.4664 69.8882 66.6084 70.6354 65.7191L55.3539 50.4375H50.4348V50.4377Z" fill="#D80027"/>
<path d="M29.5651 50.4375H29.5648L11.7156 68.2867C12.5362 69.1077 13.3942 69.8908 14.2835 70.638L29.5651 55.3561V50.4375Z" fill="#D80027"/>
<path d="M29.5646 29.5637V29.5634L11.7153 11.7139C10.8943 12.5345 10.1112 13.3925 9.36401 14.2818L24.6457 29.5636H29.5646V29.5637Z" fill="#D80027"/>
<path d="M50.4348 29.5675L68.2844 11.7178C67.4637 10.8969 66.6058 10.1137 65.7164 9.3667L50.4348 24.6484V29.5675Z" fill="#D80027"/>
</g>
<defs>
<clipPath id="clip0_31_46255">
<rect width="80" height="80" fill="white"/>
</clipPath>
</defs>
</svg>
