<svg width="80" height="80" viewBox="0 0 80 80" fill="none" xmlns="http://www.w3.org/2000/svg">
<g clip-path="url(#clip0_31_46292)">
<path d="M40 80C62.0914 80 80 62.0914 80 40C80 17.9086 62.0914 0 40 0C17.9086 0 0 17.9086 0 40C0 62.0914 17.9086 80 40 80Z" fill="#F0F0F0"/>
<path d="M79.9997 39.9969C79.9997 22.7983 69.1446 8.13658 53.9126 2.48486V77.5091C69.1446 71.8572 79.9997 57.1955 79.9997 39.9969Z" fill="#D80027"/>
<path d="M-0.000488281 39.9989C-0.000488281 57.1974 10.8545 71.8592 26.0865 77.5109V2.48682C10.8545 8.13854 -0.000488281 22.8003 -0.000488281 39.9989Z" fill="#6DA544"/>
</g>
<defs>
<clipPath id="clip0_31_46292">
<rect width="80" height="80" fill="white"/>
</clipPath>
</defs>
</svg>
