<svg width="70" height="58" viewBox="0 0 70 58" fill="none" xmlns="http://www.w3.org/2000/svg">
<path d="M38.516 9.90049C25.6318 17.6813 18.4781 31.9114 14.1788 45.8284C13.9577 46.5436 13.6875 47.2614 13.4406 47.96C12.7502 46.5671 8.03941 34.9993 6.13752 35.7065C5.026 36.1199 5.66182 37.6054 5.90643 38.2047C7.67699 42.5368 9.40669 46.4204 11.5222 50.6097C13.1145 53.7634 16.0775 52.9413 19.0126 51.9815C23.4936 50.516 23.8573 50.0959 28.4468 48.4092C29.2033 48.1311 29.9981 47.9062 30.6992 47.5588C31.5235 47.1497 32.4074 46.284 31.9697 45.3405C31.4737 44.2711 30.3947 44.3466 29.473 44.7392C29.2806 44.8217 29.0852 44.8972 28.888 44.9681C26.7217 45.7458 16.8897 49.8946 16.5623 49.1932C16.4517 48.957 16.4891 48.6822 16.5309 48.425C17.7344 41.0028 20.9216 33.9326 24.6869 27.4726C27.2202 23.1255 30.4715 19.1989 34.2604 15.8869C37.3049 13.2253 40.7374 10.9655 44.4765 9.40579C48.4859 7.733 52.3662 7.38833 56.6495 7.1339C59.1153 6.98768 57.1623 4.63842 55.7903 4.37381C54.2825 4.08254 52.6682 4.6056 51.2034 4.91054C46.5694 5.87763 42.3377 7.59276 38.516 9.90049Z" fill="#03055E"/>
</svg>
