<svg width="86" height="80" viewBox="0 0 86 80" fill="none" xmlns="http://www.w3.org/2000/svg">
<path d="M33.4318 62.8137V62.8805C33.4191 64.1222 32.9167 65.3082 32.0337 66.182C31.1506 67.0553 29.9583 67.5452 28.7159 67.5452C27.4734 67.5452 26.2811 67.0553 25.3981 66.182C24.5151 65.3082 24.0126 64.1222 24 62.8805V62.8137C24.0126 61.572 24.5151 60.386 25.3981 59.5127C26.2811 58.6394 27.4734 58.1495 28.7159 58.1495C29.9583 58.1495 31.1506 58.6394 32.0337 59.5127C32.9167 60.386 33.4191 61.572 33.4318 62.8137Z" fill="white"/>
<path d="M66.4312 26.0715C67.4773 28.6759 68.0006 31.4783 68.0006 34.4788C68.0006 37.3705 67.4773 40.1042 66.4312 42.68C65.3856 45.2563 63.9503 47.5088 62.1262 49.4374C60.3022 51.3708 58.1286 52.8991 55.6051 54.0227C53.082 55.1458 50.3444 55.7088 47.3928 55.7107C43.6921 55.7107 40.6195 55.0538 38.1752 53.74C35.731 52.4257 33.7596 50.6433 32.2613 48.3918V52.493C32.2613 53.3459 31.9222 54.1636 31.3187 54.7667C30.7152 55.3699 29.8966 55.7088 29.043 55.7088C28.1895 55.7088 27.3709 55.3699 26.7673 54.7667C26.1638 54.1636 25.8247 53.3459 25.8247 52.493V16.2157C25.8247 15.3628 26.1638 14.5449 26.7673 13.9418C27.3709 13.3388 28.1895 13 29.043 13C29.8966 13 30.7152 13.3388 31.3187 13.9418C31.9222 14.5449 32.2613 15.3628 32.2613 16.2157V20.4024C33.7649 18.0953 35.7377 16.2856 38.1796 14.9733C40.618 13.6594 43.6899 13.0024 47.3952 13.0024C50.3475 13.0024 53.0849 13.5652 55.6075 14.6906C58.1306 15.8161 60.3041 17.3444 62.1286 19.2756C63.9507 21.2084 65.3851 23.4738 66.4312 26.0715ZM61.1614 34.4788C61.1677 32.5301 60.8264 30.5959 60.1531 28.767C59.4816 26.9446 58.5294 25.3362 57.2974 23.9419C56.065 22.5477 54.5352 21.4351 52.7088 20.6042C50.8847 19.7744 48.8449 19.3586 46.5892 19.3569C44.6064 19.3569 42.7777 19.6783 41.117 20.3211C39.4564 20.9638 38.0022 21.8511 36.7686 22.9778C35.5397 24.0937 34.5304 25.4292 33.7925 26.9156C33.3554 27.7856 33.0004 28.6944 32.732 29.6302C32.3957 30.781 32.2613 31.9818 32.2613 33.1742V35.6442C32.2615 37.8583 32.7999 40.0393 33.8303 41.9994C34.5895 43.4487 35.6135 44.7437 36.8495 45.8164C38.0831 46.8911 39.5183 47.7494 41.1553 48.3918C42.7922 49.0346 44.6033 49.3556 46.5887 49.3561C48.8441 49.3561 50.8838 48.9407 52.7083 48.1095C54.5323 47.2784 56.062 46.18 57.297 44.8144C58.5304 43.4473 59.4821 41.8648 60.1526 40.0659C60.8235 38.2797 61.1653 36.3868 61.1614 34.4788Z" fill="white"/>
<path fill-rule="evenodd" clip-rule="evenodd" d="M0 58C7.62742 58 12 53.6274 12 46C12 53.6274 16.3726 58 24 58C16.3726 58 12 62.3726 12 70C12 62.3726 7.62742 58 0 58Z" fill="#D9A95D"/>
<path fill-rule="evenodd" clip-rule="evenodd" d="M70 24C75.0849 24 78 21.0849 78 16C78 21.0849 80.9151 24 86 24C80.9151 24 78 26.9151 78 32C78 26.9151 75.0849 24 70 24Z" fill="#D9A95D"/>
</svg>
