<svg width="92" height="28" viewBox="0 0 92 28" fill="none" xmlns="http://www.w3.org/2000/svg">
<path d="M0.760254 21.5891V6.41158C0.760254 6.05479 0.9017 5.7126 1.1535 5.46022C1.4053 5.20784 1.74686 5.06593 2.10308 5.06567C2.45931 5.06593 2.80086 5.20784 3.05267 5.46022C3.30447 5.7126 3.44591 6.05479 3.44591 6.41158V8.16336C4.06269 7.20818 4.91263 6.42646 5.91529 5.89217C6.93489 5.34323 8.21744 5.06877 9.76292 5.06877C10.9945 5.06877 12.1368 5.30427 13.1899 5.77529C14.2429 6.2463 15.15 6.88569 15.9112 7.69346C16.6717 8.50107 17.2708 9.44889 17.7084 10.5369C18.1461 11.6249 18.3645 12.797 18.3637 14.0531C18.3637 15.2644 18.1453 16.4085 17.7084 17.4855C17.2716 18.5624 16.6725 19.5042 15.9112 20.3111C15.1495 21.1185 14.2426 21.7578 13.1903 22.229C12.1381 22.7002 10.9956 22.9358 9.76292 22.9358C8.21759 22.9358 6.93537 22.6609 5.91625 22.1112C4.89712 21.5614 4.07399 20.8156 3.44686 19.8735V21.5875C3.44699 21.7643 3.41232 21.9394 3.34485 22.1028C3.27737 22.2662 3.17841 22.4147 3.05362 22.5398C2.92882 22.6649 2.78064 22.7641 2.61755 22.8318C2.45445 22.8995 2.27963 22.9343 2.10308 22.9343C1.74698 22.9341 1.40554 22.7923 1.15375 22.54C0.901972 22.2878 0.760443 21.9458 0.760254 21.5891ZM3.44591 13.508V14.5394C3.44592 15.4658 3.67071 16.3783 4.10093 17.1984C4.41729 17.8054 4.84456 18.3475 5.36058 18.7966C5.87584 19.2457 6.47501 19.6047 7.15807 19.8735C7.84113 20.1424 8.59707 20.2773 9.4259 20.2782C10.3669 20.2777 11.2184 20.1037 11.9804 19.7562C12.7423 19.4086 13.3807 18.9484 13.8955 18.3755C14.4152 17.7955 14.8199 17.1217 15.0879 16.39C15.3672 15.6421 15.5096 14.8499 15.5081 14.0514C15.5105 13.2365 15.3682 12.4277 15.0879 11.6626C14.82 10.9209 14.4155 10.2361 13.8955 9.64377C13.3801 9.06055 12.7417 8.59502 11.9804 8.24715C11.219 7.89929 10.3679 7.7256 9.42709 7.72607C8.5981 7.72607 7.83653 7.86096 7.14238 8.13075C6.44823 8.40053 5.84352 8.77038 5.32825 9.24028C4.81548 9.70804 4.39399 10.2672 4.08524 10.8892C3.90328 11.2535 3.75491 11.6336 3.64199 12.0249C3.50272 12.5058 3.44591 13.0071 3.44591 13.508Z" fill="#03045E"/>
<path d="M21.0513 14.0193C21.0513 12.7634 21.2865 11.5913 21.7569 10.5029C22.2273 9.41457 22.8656 8.46659 23.6716 7.65898C24.4777 6.85122 25.424 6.21746 26.5103 5.75771C27.5966 5.29797 28.7557 5.06786 29.9876 5.06738C31.2192 5.06738 32.3783 5.29749 33.465 5.75771C34.5516 6.21794 35.4978 6.85169 36.3037 7.65898C37.1102 8.46643 37.7485 9.41417 38.2186 10.5022C38.6887 11.5902 38.924 12.7626 38.9245 14.0193C38.9245 15.2534 38.6892 16.4087 38.2188 17.4853C37.7484 18.5619 37.1101 19.5041 36.3039 20.3118C35.4977 21.1193 34.5515 21.7586 33.4652 22.2297C32.3789 22.7009 31.2198 22.9365 29.9879 22.9365C28.7558 22.9365 27.5967 22.7009 26.5105 22.2297C25.4244 21.7586 24.4781 21.119 23.6716 20.3111C22.8652 19.5035 22.2269 18.5613 21.7567 17.4846C21.2864 16.4078 21.0513 15.2527 21.0513 14.0193ZM23.9404 14.0193C23.9387 14.8177 24.0812 15.6098 24.3608 16.3574C24.6326 17.096 25.0431 17.7756 25.5703 18.3594C26.096 18.9431 26.7343 19.4086 27.4852 19.756C28.2361 20.1034 29.0704 20.2772 29.9881 20.2775C30.9063 20.2775 31.7406 20.1037 32.491 19.756C33.2414 19.4083 33.8741 18.9427 34.3893 18.3594C34.907 17.7716 35.3113 17.0928 35.5819 16.3574C35.8609 15.6096 36.0031 14.8176 36.0016 14.0193C36.0023 13.215 35.8601 12.4171 35.5816 11.6627C35.3012 10.9009 34.9036 10.228 34.389 9.64381C33.8744 9.05964 33.2416 8.59411 32.4908 8.24719C31.74 7.89965 30.9057 7.7258 29.9879 7.72564C29.07 7.72548 28.2357 7.89933 27.485 8.24719C26.7341 8.59522 26.0958 9.06076 25.5701 9.64381C25.0406 10.2322 24.6299 10.9178 24.3608 11.6627C24.0819 12.4169 23.9395 13.215 23.9404 14.0193Z" fill="#03045E"/>
<path d="M42.9717 5.09521C43.3281 5.09521 43.6699 5.23702 43.9219 5.48942C44.1739 5.74183 44.3155 6.08417 44.3155 6.44112V9.49953C45.0095 8.10919 45.9502 7.07171 47.1376 6.38709C47.8405 5.97915 48.6041 5.68677 49.3995 5.52108C50.2275 5.34969 51.0011 5.99717 51.0011 6.84342V7.06552C51.0011 7.72586 50.5201 8.27455 49.8715 8.3931C49.4733 8.46701 49.0815 8.57248 48.7 8.70851C47.9105 8.9856 47.1767 9.40146 46.5329 9.93658C45.8833 10.475 45.3513 11.1424 44.937 11.9388C44.5227 12.7351 44.3155 13.6606 44.3155 14.7153V21.5799C44.3155 21.9368 44.1739 22.2792 43.9219 22.5316C43.6699 22.784 43.3281 22.9258 42.9717 22.9258C42.6153 22.9258 42.2735 22.784 42.0215 22.5316C41.7695 22.2792 41.6279 21.9368 41.6279 21.5799V6.44017C41.6282 6.08338 41.7699 5.74129 42.0219 5.48909C42.2738 5.23688 42.6155 5.09521 42.9717 5.09521Z" fill="#03045E"/>
<path d="M59.726 1.32825V5.06724H63.5665C63.7283 5.0672 63.8886 5.09911 64.0382 5.16114C64.1878 5.22316 64.3237 5.31409 64.4382 5.42873C64.5526 5.54337 64.6434 5.67947 64.7054 5.82926C64.7674 5.97905 64.7992 6.1396 64.7992 6.30174V6.36554C64.7992 6.52767 64.7674 6.68822 64.7054 6.83802C64.6434 6.98781 64.5526 7.12391 64.4382 7.23855C64.3237 7.35318 64.1878 7.44411 64.0382 7.50614C63.8886 7.56816 63.7283 7.60007 63.5665 7.60004H59.726V17.6253C59.726 18.7694 59.9612 19.5321 60.4316 19.9134C60.902 20.2948 61.5292 20.4852 62.313 20.4847C62.6923 20.4828 63.0712 20.4606 63.4481 20.4183C64.1713 20.3405 64.7992 20.9182 64.7992 21.6471C64.7988 21.9501 64.6875 22.2424 64.4863 22.4686C64.2851 22.6949 64.008 22.8393 63.7076 22.8747L63.2706 22.9247C62.7965 22.9787 62.3198 23.0068 61.8426 23.0087C61.1482 23.0087 60.5042 22.9302 59.9109 22.7731C59.3175 22.616 58.8079 22.3412 58.3822 21.9487C57.9566 21.5566 57.6262 21.0182 57.3911 20.3336C57.156 19.649 57.0384 18.7909 57.0384 17.7593V7.60004H54.9113C54.5844 7.60004 54.2709 7.46998 54.0397 7.23846C53.8086 7.00695 53.6787 6.69295 53.6787 6.36554V6.30174C53.6787 5.97433 53.8086 5.66033 54.0397 5.42881C54.2709 5.1973 54.5844 5.06724 54.9113 5.06724H57.0384V1.32825C57.0384 1.00084 57.1683 0.686842 57.3994 0.455328C57.6306 0.223813 57.9441 0.09375 58.271 0.09375L58.4934 0.09375C58.8203 0.09375 59.1338 0.223813 59.365 0.455328C59.5961 0.686842 59.726 1.00084 59.726 1.32825Z" fill="#03045E"/>
<path d="M69.2413 5.0813H69.4636C69.7905 5.0813 70.1041 5.21139 70.3353 5.44295C70.5665 5.67451 70.6964 5.98857 70.6964 6.31604V21.7016C70.6964 21.8638 70.6645 22.0243 70.6025 22.1741C70.5405 22.3239 70.4497 22.46 70.3353 22.5746C70.2208 22.6893 70.0849 22.7802 69.9353 22.8422C69.7857 22.9043 69.6254 22.9362 69.4636 22.9361H69.2413C68.9145 22.9361 68.6009 22.8061 68.3698 22.5746C68.1386 22.3431 68.0088 22.029 68.0088 21.7016V6.31604C68.0088 6.1539 68.0406 5.99335 68.1025 5.84354C68.1645 5.69374 68.2553 5.55762 68.3697 5.44296C68.4842 5.3283 68.6201 5.23735 68.7696 5.17529C68.9192 5.11324 69.0795 5.0813 69.2413 5.0813Z" fill="#03045E"/>
<path d="M90.4872 22.9361H90.2664C90.1043 22.936 89.9437 22.904 89.794 22.8417C89.6442 22.7795 89.5082 22.6882 89.3937 22.5732C89.2793 22.4583 89.1885 22.3218 89.1268 22.1716C89.065 22.0215 89.0334 21.8606 89.0338 21.6982L89.0369 19.8653C88.4095 20.8075 87.5864 21.5533 86.5678 22.1029C85.5491 22.6525 84.2668 22.9273 82.7209 22.9275C81.4888 22.9275 80.3465 22.6919 79.2939 22.2207C78.2414 21.7496 77.3344 21.1107 76.5729 20.304C75.8109 19.4965 75.2117 18.5544 74.7754 17.4777C74.339 16.4009 74.1206 15.2562 74.1201 14.0434C74.1201 12.7873 74.3385 11.6152 74.7754 10.527C75.2122 9.4388 75.8114 8.49098 76.5729 7.68353C77.3334 6.87608 78.2404 6.23677 79.2939 5.7656C80.3474 5.29443 81.4898 5.05892 82.7209 5.05908C84.2662 5.05908 85.5485 5.33387 86.5678 5.88343C87.5701 6.41822 88.4199 7.19994 89.0369 8.15486L89.0355 6.3043C89.0354 6.14212 89.0672 5.98151 89.1291 5.83165C89.191 5.6818 89.2818 5.54562 89.3963 5.43091C89.5107 5.3162 89.6466 5.2252 89.7962 5.16312C89.9458 5.10103 90.1061 5.06908 90.2681 5.06908H90.4893C90.6512 5.06908 90.8115 5.10102 90.9611 5.16307C91.1106 5.22513 91.2465 5.31608 91.361 5.43074C91.4754 5.5454 91.5662 5.68152 91.6281 5.83132C91.6901 5.98113 91.7219 6.14168 91.7219 6.30382L91.7197 21.7011C91.7198 21.8632 91.688 22.0238 91.6261 22.1737C91.5641 22.3235 91.4734 22.4596 91.3589 22.5743C91.2444 22.689 91.1086 22.78 90.959 22.842C90.8094 22.9041 90.6491 22.9361 90.4872 22.9361ZM89.0374 13.4288C89.0374 12.9539 88.9899 12.4778 88.8622 12.02C88.5654 10.9491 87.9742 9.98324 87.156 9.2325C86.6404 8.76148 86.0357 8.39132 85.3417 8.12201C84.6477 7.85271 83.8862 7.71781 83.0572 7.71734C82.1165 7.71734 81.2654 7.89119 80.5039 8.23889C79.7424 8.5866 79.1041 9.05206 78.589 9.63527C78.0685 10.2275 77.6639 10.9124 77.3961 11.6544C77.1156 12.4194 76.9733 13.2284 76.976 14.0434C76.9741 14.8419 77.1163 15.6341 77.3957 16.382C77.6636 17.1138 78.0684 17.7877 78.5885 18.3675C79.1033 18.9388 79.7416 19.3986 80.5034 19.747C81.2652 20.0953 82.1163 20.2692 83.0567 20.2685C83.8852 20.2685 84.6412 20.1336 85.3245 19.8638C86.0079 19.5941 86.607 19.2351 87.1218 18.7869C87.6397 18.3353 88.0722 17.7939 88.3986 17.1887L88.4085 17.1701C88.8399 16.3715 89.0369 15.4669 89.0369 14.559L89.0374 13.4288Z" fill="#03045E"/>
<path d="M3.93532 25.9063C3.93532 24.8179 3.05437 23.9355 1.96766 23.9355C0.880952 23.9355 0 24.8179 0 25.9063V25.9354C0 27.0238 0.880952 27.9061 1.96766 27.9061C3.05437 27.9061 3.93532 27.0238 3.93532 25.9354V25.9063Z" fill="#03055E"/>
<path d="M67.3706 2.07929C67.3706 1.51877 67.5607 1.04768 67.941 0.666012C68.3213 0.284345 68.7916 0.0935914 69.3518 0.0937501C69.9113 0.0937501 70.3816 0.284187 70.7629 0.665059C71.1441 1.04593 71.3342 1.51702 71.3333 2.07834C71.3333 2.63917 71.1431 3.11026 70.7629 3.49161C70.3826 3.87296 69.9122 4.0634 69.3518 4.06292C68.7916 4.06292 68.3212 3.87248 67.9408 3.49161C67.5603 3.11074 67.3703 2.63996 67.3706 2.07929Z" fill="#03055E"/>
</svg>
