<svg width="92" height="27" viewBox="0 0 92 27" fill="none" xmlns="http://www.w3.org/2000/svg">
<path d="M0.759766 20.4088V5.99857C0.759766 5.65981 0.901212 5.33492 1.15301 5.0953C1.40482 4.85568 1.74637 4.72094 2.1026 4.7207C2.45882 4.72094 2.80038 4.85568 3.05218 5.0953C3.30398 5.33492 3.44543 5.65981 3.44543 5.99857V7.66178C4.0622 6.7549 4.91215 6.01269 5.91481 5.50541C6.93441 4.98423 8.21695 4.72364 9.76243 4.72364C10.994 4.72364 12.1363 4.94724 13.1894 5.39444C14.2424 5.84164 15.1495 6.44871 15.9107 7.21564C16.6712 7.98241 17.2703 8.88231 17.7079 9.91533C18.1456 10.9484 18.364 12.0612 18.3632 13.2537C18.3632 14.4038 18.1448 15.4901 17.7079 16.5126C17.2711 17.5351 16.672 18.4293 15.9107 19.1953C15.149 19.962 14.2421 20.569 13.1899 21.0163C12.1376 21.4637 10.9951 21.6873 9.76243 21.6873C8.21711 21.6873 6.93488 21.4264 5.91576 20.9044C4.89663 20.3825 4.07351 19.6743 3.44638 18.7799V20.4072C3.4465 20.5751 3.41184 20.7414 3.34436 20.8965C3.27688 21.0516 3.17792 21.1926 3.05313 21.3114C2.92833 21.4301 2.78015 21.5243 2.61706 21.5886C2.45396 21.6529 2.27914 21.686 2.1026 21.686C1.74649 21.6857 1.40505 21.5511 1.15327 21.3116C0.901484 21.0721 0.759954 20.7474 0.759766 20.4088ZM3.44543 12.7362V13.7155C3.44544 14.595 3.67023 15.4614 4.10044 16.24C4.4168 16.8163 4.84408 17.331 5.36009 17.7575C5.87535 18.1839 6.47452 18.5247 7.15758 18.7799C7.84064 19.0352 8.59658 19.1632 9.42542 19.1641C10.3664 19.1637 11.2179 18.9985 11.9799 18.6685C12.7418 18.3385 13.3802 17.9016 13.895 17.3576C14.4148 16.807 14.8194 16.1672 15.0874 15.4725C15.3667 14.7624 15.5091 14.0103 15.5076 13.2522C15.51 12.4784 15.3677 11.7105 15.0874 10.9841C14.8195 10.2799 14.415 9.62974 13.895 9.06734C13.3796 8.51362 12.7412 8.07161 11.9799 7.74134C11.2185 7.41106 10.3675 7.24615 9.4266 7.2466C8.59761 7.2466 7.83604 7.37467 7.14189 7.63082C6.44774 7.88696 5.84303 8.23811 5.32776 8.68425C4.815 9.12836 4.3935 9.65924 4.08475 10.2498C3.90279 10.5957 3.75442 10.9566 3.6415 11.3281C3.50223 11.7847 3.44543 12.2606 3.44543 12.7362Z" fill="white"/>
<path d="M21.0508 13.222C21.0508 12.0296 21.286 10.9167 21.7564 9.88338C22.2268 8.85006 22.8651 7.95001 23.6711 7.18323C24.4773 6.4163 25.4235 5.81459 26.5098 5.37809C27.5961 4.94159 28.7552 4.72311 29.9871 4.72266C31.2187 4.72266 32.3778 4.94113 33.4645 5.37809C34.5511 5.81504 35.4973 6.41676 36.3032 7.18323C37.1097 7.94986 37.748 8.84969 38.2181 9.88271C38.6882 10.9157 38.9235 12.0288 38.924 13.222C38.924 14.3937 38.6888 15.4906 38.2183 16.5127C37.7479 17.5349 37.1096 18.4295 36.3034 19.1964C35.4973 19.963 34.551 20.57 33.4647 21.0173C32.3784 21.4647 31.2193 21.6884 29.9874 21.6884C28.7553 21.6884 27.5962 21.4647 26.51 21.0173C25.4239 20.57 24.4776 19.9628 23.6711 19.1957C22.8648 18.4289 22.2265 17.5344 21.7562 16.5121C21.2859 15.4897 21.0508 14.3931 21.0508 13.222ZM23.9399 13.222C23.9383 13.98 24.0807 14.7321 24.3603 15.4419C24.6321 16.1431 25.0427 16.7884 25.5698 17.3426C26.0955 17.8968 26.7338 18.3388 27.4847 18.6686C28.2356 18.9985 29.0699 19.1635 29.9876 19.1638C30.9058 19.1638 31.7401 18.9988 32.4905 18.6686C33.2409 18.3385 33.8737 17.8965 34.3888 17.3426C34.9065 16.7846 35.3108 16.1401 35.5814 15.4419C35.8605 14.7319 36.0026 13.9799 36.0011 13.222C36.0018 12.4584 35.8596 11.7008 35.5812 10.9845C35.3007 10.2613 34.9032 9.62234 34.3885 9.06771C33.8739 8.51308 33.2411 8.07108 32.4903 7.74171C31.7395 7.41173 30.9053 7.24667 29.9874 7.24652C29.0695 7.24637 28.2352 7.41143 27.4845 7.74171C26.7336 8.07213 26.0953 8.51414 25.5696 9.06771C25.0401 9.62636 24.6294 10.2773 24.3603 10.9845C24.0814 11.7006 23.939 12.4583 23.9399 13.222Z" fill="white"/>
<path d="M42.9727 4.74902C43.3291 4.74902 43.6709 4.88366 43.9229 5.1233C44.1749 5.36295 44.3165 5.68798 44.3165 6.02689V8.93067C45.0105 7.61062 45.9512 6.62559 47.1385 5.97558C47.8414 5.58827 48.6051 5.31067 49.4004 5.15336C50.2285 4.99063 51.0021 5.60538 51.0021 6.40885V6.61971C51.0021 7.24667 50.5211 7.76762 49.8725 7.88018C49.4742 7.95035 49.0825 8.05049 48.701 8.17964C47.9115 8.44272 47.1776 8.83756 46.5339 9.34563C45.8843 9.85687 45.3523 10.4905 44.938 11.2466C44.5236 12.0027 44.3165 12.8814 44.3165 13.8828V20.4003C44.3165 20.7392 44.1749 21.0642 43.9229 21.3039C43.6709 21.5435 43.3291 21.6781 42.9727 21.6781C42.6163 21.6781 42.2745 21.5435 42.0225 21.3039C41.7705 21.0642 41.6289 20.7392 41.6289 20.4003V6.02598C41.6292 5.68723 41.7708 5.36243 42.0228 5.12298C42.2748 4.88353 42.6165 4.74902 42.9727 4.74902Z" fill="white"/>
<path d="M59.7269 1.17209V4.72204H63.5674C63.7293 4.72201 63.8896 4.75231 64.0392 4.8112C64.1887 4.87009 64.3247 4.95642 64.4391 5.06526C64.5536 5.1741 64.6444 5.30332 64.7064 5.44554C64.7683 5.58776 64.8002 5.74019 64.8002 5.89413V5.9547C64.8002 6.10864 64.7683 6.26108 64.7064 6.4033C64.6444 6.54552 64.5536 6.67474 64.4391 6.78358C64.3247 6.89242 64.1887 6.97875 64.0392 7.03764C63.8896 7.09653 63.7293 7.12682 63.5674 7.1268H59.7269V16.6452C59.7269 17.7314 59.9621 18.4556 60.4326 18.8176C60.903 19.1797 61.5301 19.3605 62.314 19.3601C62.6932 19.3582 63.0721 19.3372 63.4491 19.297C64.1723 19.2231 64.8002 19.7716 64.8002 20.4637C64.7998 20.7513 64.6884 21.0288 64.4873 21.2437C64.2861 21.4585 64.009 21.5956 63.7086 21.6292L63.2715 21.6767C62.7974 21.728 62.3208 21.7546 61.8436 21.7565C61.1491 21.7565 60.5052 21.6819 59.9118 21.5327C59.3185 21.3836 58.8089 21.1227 58.3832 20.75C57.9576 20.3777 57.6272 19.8666 57.3921 19.2166C57.1569 18.5666 57.0394 17.7519 57.0394 16.7725V7.1268H54.9122C54.5853 7.1268 54.2718 7.00331 54.0407 6.7835C53.8095 6.56369 53.6797 6.26556 53.6797 5.9547V5.89413C53.6797 5.58328 53.8095 5.28515 54.0407 5.06534C54.2718 4.84553 54.5853 4.72204 54.9122 4.72204H57.0394V1.17209C57.0394 0.861233 57.1692 0.563107 57.4004 0.343298C57.6315 0.123488 57.945 0 58.2719 0L58.4944 0C58.8213 0 59.1348 0.123488 59.3659 0.343298C59.5971 0.563107 59.7269 0.861233 59.7269 1.17209Z" fill="white"/>
<path d="M69.2423 4.73535H69.4645C69.7915 4.73535 70.1051 4.85886 70.3363 5.07872C70.5674 5.29857 70.6973 5.59675 70.6973 5.90767V20.5154C70.6973 20.6694 70.6654 20.8218 70.6035 20.964C70.5415 21.1062 70.4507 21.2355 70.3362 21.3443C70.2218 21.4531 70.0859 21.5395 69.9363 21.5984C69.7867 21.6572 69.6264 21.6875 69.4645 21.6875H69.2423C68.9154 21.6875 68.6019 21.564 68.3708 21.3442C68.1396 21.1244 68.0098 20.8263 68.0098 20.5154V5.90767C68.0097 5.75373 68.0416 5.60129 68.1035 5.45906C68.1654 5.31683 68.2562 5.18759 68.3707 5.07873C68.4851 4.96987 68.621 4.88351 68.7706 4.82459C68.9201 4.76568 69.0804 4.73535 69.2423 4.73535Z" fill="white"/>
<path d="M90.4882 21.687H90.2674C90.1052 21.687 89.9447 21.6566 89.795 21.5975C89.6452 21.5384 89.5092 21.4517 89.3947 21.3426C89.2802 21.2334 89.1895 21.1038 89.1278 20.9613C89.066 20.8187 89.0344 20.666 89.0348 20.5118L89.0379 18.7715C88.4105 19.6661 87.5874 20.3742 86.5688 20.896C85.5501 21.4178 84.2678 21.6788 82.7219 21.6789C81.4898 21.6789 80.3475 21.4552 79.2949 21.0079C78.2424 20.5605 77.3353 19.9539 76.5738 19.188C75.8119 18.4214 75.2127 17.5269 74.7763 16.5046C74.34 15.4823 74.1216 14.3954 74.1211 13.244C74.1211 12.0514 74.3395 10.9385 74.7763 9.90533C75.2132 8.87216 75.8124 7.97226 76.5738 7.20563C77.3344 6.43901 78.2414 5.83202 79.2949 5.38467C80.3484 4.93732 81.4907 4.71372 82.7219 4.71387C84.2672 4.71387 85.5495 4.97476 86.5688 5.49654C87.5711 6.00429 88.4209 6.74649 89.0379 7.65314L89.0365 5.89613C89.0364 5.74215 89.0682 5.58966 89.1301 5.44738C89.192 5.3051 89.2828 5.17581 89.3972 5.0669C89.5117 4.95799 89.6476 4.87159 89.7972 4.81264C89.9468 4.7537 90.1071 4.72336 90.269 4.72336H90.4903C90.6522 4.72336 90.8125 4.75368 90.962 4.8126C91.1116 4.87152 91.2475 4.95787 91.3619 5.06674C91.4764 5.1756 91.5672 5.30484 91.6291 5.44707C91.691 5.5893 91.7229 5.74174 91.7229 5.89568L91.7207 20.5145C91.7208 20.6685 91.689 20.8209 91.627 20.9632C91.5651 21.1054 91.4743 21.2347 91.3599 21.3436C91.2454 21.4525 91.1095 21.5388 90.96 21.5978C90.8104 21.6567 90.6501 21.687 90.4882 21.687ZM89.0384 12.6604C89.0384 12.2095 88.9909 11.7575 88.8632 11.3229C88.5664 10.3061 87.9752 9.38908 87.157 8.67629C86.6414 8.22909 86.0366 7.87764 85.3426 7.62195C84.6486 7.36625 83.8872 7.23818 83.0582 7.23773C82.1175 7.23773 81.2664 7.40279 80.5049 7.73292C79.7434 8.06304 79.1051 8.50497 78.59 9.0587C78.0695 9.62096 77.6649 10.2713 77.3971 10.9757C77.1166 11.7021 76.9743 12.4702 76.9769 13.244C76.9751 14.0021 77.1173 14.7543 77.3966 15.4643C77.6645 16.1591 78.0694 16.7989 78.5895 17.3494C79.1043 17.8919 79.7426 18.3284 80.5044 18.6592C81.2662 18.9899 82.1173 19.155 83.0577 19.1544C83.8862 19.1544 84.6421 19.0263 85.3255 18.7702C86.0089 18.514 86.608 18.1732 87.1228 17.7477C87.6407 17.3189 88.0732 16.8048 88.3995 16.2302L88.4095 16.2126C88.8409 15.4543 89.0379 14.5955 89.0379 13.7335L89.0384 12.6604Z" fill="white"/>
<path d="M3.93532 24.5079C3.93532 23.4745 3.05437 22.6367 1.96766 22.6367C0.880952 22.6367 0 23.4745 0 24.5079V24.5354C0 25.5688 0.880952 26.4066 1.96766 26.4066C3.05437 26.4066 3.93532 25.5688 3.93532 24.5354V24.5079Z" fill="white"/>
<path d="M67.3711 1.88516C67.3711 1.35298 67.5612 0.9057 67.9415 0.54333C68.3218 0.180959 68.792 -0.00015058 69.3523 9.39363e-08C69.9118 9.39363e-08 70.3821 0.180809 70.7633 0.542426C71.1446 0.904043 71.3347 1.35132 71.3338 1.88425C71.3338 2.41673 71.1436 2.86401 70.7633 3.22608C70.3831 3.58815 69.9127 3.76895 69.3523 3.7685C68.792 3.7685 68.3217 3.58769 67.9413 3.22608C67.5608 2.86446 67.3708 2.41749 67.3711 1.88516Z" fill="white"/>
</svg>
