<svg width="1177" height="576" viewBox="0 0 1177 576" fill="none" xmlns="http://www.w3.org/2000/svg">
<path d="M943.512 495.026L987.75 482.574L1001.12 494.709L1009.7 496.961L1017.15 506.462L1034.92 509.456L1047.02 505.115L1053.01 488.384L1059.67 472.703L1057.82 459.426L1038.06 439.057L1031.64 421.924L1027.06 421.76L1022.88 410.257L1019 429.966L1016.07 433.246L1000.33 424.759L1002.98 419.16L1004.74 416.063L1002.56 413.762L996.708 414.309L989.174 411.399L981.121 420.326L981.02 424.866L975.596 425.099L972.883 420.318L962.715 426.873L956.085 432.734L954.984 436.884L949.958 441.216L937.4 444.512L930.612 450.287L928.837 449.954L927.689 459.857L928.763 462.684L931.163 472.311L934.783 481.82L934.472 489.405L931.321 490.732L932.981 494.165L935.645 493.272L938.803 495.314L943.512 495.026Z" fill="#E9E9F2"/>
<path d="M1031.21 516.352L1036.67 518.256L1040.43 516.918L1042.25 517.612L1041.51 522.815V526.335H1040.26L1039.59 525.082L1038.48 526.813L1037.29 527.921L1034.57 526.898L1031.92 524.075L1031.59 520.232L1030.03 518.195L1031.21 516.352Z" fill="#E9E9F2"/>
<path d="M988.304 382.69L994.207 381.991L988.304 380.812L986.239 379.343L983.069 376.637L987.341 376.602L989.455 374.911L995.26 376.637L996.474 380.788L997.657 384.94L999.925 385L1007.18 379.019L1033.54 389.551L1035.51 393.677L1039.61 395.33L1039.95 396.932L1038.34 397.166L1038.51 399.095L1047.61 408.04L1049.99 408.474L1049.11 410.471L1046.45 409.148L1039.94 407.934L1033.75 401.097L1028.94 400.67L1025.9 402.779L1026.13 404.164L1023.15 405.783L1018.15 405.469L1014.87 400.996L1007.4 401.988L1008.29 399.013L1011.24 397.946L1007.36 391.583L994.389 386.716L994.609 384.785L993.118 387.713L991.188 387.544L989.924 384.646L988.304 384.089V382.69Z" fill="#E9E9F2"/>
<path d="M958.222 405.516C958.698 405.856 965.041 401.724 965.041 401.724L970.655 400.86L971.095 401.205L964.659 404.657C964.659 404.657 960.793 407.631 960.752 407.611C960.711 407.591 958.649 408.31 958.649 408.31L958.222 405.516Z" fill="#E9E9F2"/>
<path d="M949.696 369.697L960.105 370.881L963.498 367.784L963.791 370.511L959.586 373.022L951.437 372.408L948.732 372.136L946.891 374.717L949.034 378.036C949.034 378.036 952.105 376.569 952.523 376.638C952.941 376.707 955.967 376.123 955.967 376.123L957.637 375.477L957.843 376.411L955.879 378.036L952.315 380.327L954.716 383.868L954.698 385.406L956.558 387.646L952.821 389.591L950.085 385.032L949.254 384.965L950.302 383.048L948.704 382.744L947.925 386.6L948.042 389.591L946.889 392.614L944.972 392.426L944.456 391.027L945.71 388.513L945.489 385.489L943.17 384.637V382.257L944.382 379.953L946.59 372.462L949.696 369.697Z" fill="#E9E9F2"/>
<path d="M901.062 393.397L903.711 393.767L904.683 393.013L907.781 394.348L909.47 395.807L912.73 395.973L915.145 396.519L916.415 395.01L919.091 395.851L921.739 396.518L923.39 398.437L924.899 399.362C924.899 399.362 926.271 398.597 926.583 398.758C926.895 398.919 928.963 399.511 928.963 399.511L928.614 401.856L924.857 401.419L918.986 401.11L913.025 399.361H907.565L904.663 398.324L902.66 398.484L901.659 396.632L899.373 396.113L901.062 393.397Z" fill="#E9E9F2"/>
<path d="M922.825 396.582L923.254 397.639L926.86 397.285L927.632 396.318L925.57 396.133L923.667 396.211L922.825 396.582Z" fill="#E9E9F2"/>
<path d="M930.182 400.334C930.182 400.334 931.497 400.472 931.611 400.512C931.726 400.553 933.096 401.306 933.096 401.306L932.287 402.023C932.287 402.023 931.858 402.671 931.776 402.787C931.694 402.902 931.321 403.035 931.321 403.035L930.446 402.328L929.721 401.856L929.661 401.419L930.182 400.334Z" fill="#E9E9F2"/>
<path d="M912.871 367.784L917.799 367.336L928.319 359.978L931.635 358.317L936.235 350.955L940.768 354.441L944.416 356.109L941.624 357.408L939.222 360.64L938.167 362.522L943.479 370.603L939.936 371.271L938.666 375.031L935.232 379.181L934.959 383.112L930.2 387.208L928.964 384.654C928.964 384.654 926.738 384.355 925.23 384.399C923.722 384.443 915.198 382.946 915.198 382.946L910.942 372.932L912.871 367.784Z" fill="#E9E9F2"/>
<path d="M866.938 355.349L875.238 358.258C875.238 358.258 882.49 365.783 883.21 366.506C883.931 367.229 896.28 380.008 897.158 380.897C898.037 381.786 900.48 385.883 900.48 385.883L901.061 393.398L896.78 392.017L891.449 389.544L881.001 374.912L874.146 366.566L870.176 362.524L865.666 357.323L866.938 355.349Z" fill="#E9E9F2"/>
<path d="M882.276 354.326C882.276 354.326 883.686 360.326 884.219 361.534C884.752 362.742 890.996 368.616 890.996 368.616L894.558 370.017L894.606 367.125L892.203 362.171L892.29 357.444L885.268 351.02L882.841 349.894L880.675 343.699L878.664 341.945L881.605 329.362L883.616 328.897L896.824 340.399L900.617 343.586L911.068 335.24L911.323 329.564L910.234 323.215L901.261 312.952L873.352 319.763L877.135 336.4L875.723 344.323L879.393 350.537L882.276 354.326Z" fill="#E9E9F2"/>
<path d="M901.262 312.954V307.28C901.262 307.28 906.368 301.344 908.278 301.654C910.189 301.964 913.263 303.308 916.14 302.422C919.017 301.536 940.485 293.009 940.485 293.009L952.941 272.701L951.503 263.958L944.914 253.556L955.264 245.472L948.792 243.368L943.695 245.143L943.087 238.499L952.61 231.808L952.17 237.339L961.153 236.056L964.508 237.613L964.781 243.813L968.247 244.287L968.44 253.171L967.328 256.868L979.068 252.779L976.466 243.593L972.141 236.507C972.141 236.507 977.508 233.54 977.899 232.188C978.29 230.836 985.873 222.006 985.873 222.006L990.853 224.773L1012.1 202.416L1015.48 188.299L1016.14 179.337L1009.72 175.354L1006.41 178.396L997.824 173.475L1018.69 154.263L1030.53 151.609L1056.16 152.829L1068.17 141.375C1068.17 141.375 1093.14 135.048 1092.24 136.995C1091.35 138.942 1069.88 159.576 1068.17 161.625C1066.45 163.674 1063.91 173.415 1063.91 173.415L1067.01 189.298L1083.61 174.299L1089.53 165.497L1085.6 155.489L1095.17 148.625L1108.85 145.526L1133.8 135.503L1142.71 123.555L1146.8 115.855C1146.8 115.855 1155.44 118.188 1157.1 120.953C1158.77 123.718 1167.84 125.216 1167.84 125.216L1176.58 117.741L1165.18 111.487L1112.83 94.382L1112.94 101.522L1079.51 96.649L1076.02 90.343C1076.02 90.343 1059.36 91.7831 1055.93 90.343C1052.51 88.903 1012.27 80.217 1012.27 80.217L1010.17 86.194L981.94 89.8481L974.801 82.211L971.757 73.302L955.875 77.065L903.409 74.5721L925.443 62.342L922.723 54.2641L907.119 52.489L897.712 46.29L878.12 54.315L837.36 63.297L836.833 68.93L814.224 71.416L823.055 82.152C823.055 82.152 807.118 76.51 806.672 79.829C806.226 83.148 795.271 83.594 795.271 83.594C795.271 83.594 800.526 99.424 803.998 101.056C809.255 103.527 814.223 105.675 814.223 105.675L793.109 113.648C793.109 113.648 777.832 113.48 781.986 113.315C786.14 113.15 791.503 98.59 791.503 98.59L790.18 78.341L779.609 78.726L771.306 90.239L777.667 100.972L745.851 101.087L711.361 108.398L737.616 282.511C737.616 282.511 754.129 290.164 756.602 289.69C759.075 289.216 770.586 288.291 770.586 288.291L777.756 295.721L789.98 300.11L797.098 327.607L805.047 345.972L808.771 346.644L813.26 343.64L814.536 339.263L816.55 329.049L817.584 321.262L841.883 302.126L854.467 300.111C854.467 300.111 857.864 306.758 860.499 311.662C863.134 316.565 863.181 320.794 863.181 320.794L867.622 320.279L871.698 317.648L873.351 319.767L901.262 312.954Z" fill="#E9E9F2"/>
<path d="M984.328 256C985.335 255.1 990.319 251.741 991.099 251.915C991.878 252.088 997.603 251.755 997.603 251.755L1007.4 245.532C1007.4 245.532 1012.22 239.309 1012.41 237.836C1012.61 236.363 1012.17 232.221 1012.55 231.999C1012.93 231.777 1015.64 229.756 1015.64 229.756L1019.08 234.767L1017.53 240.962L1015.95 243.782L1014.63 249.154C1014.63 249.154 1015.15 252.895 1014.04 253.556C1012.93 254.217 1006.9 254.962 1006.9 254.962L1002.25 255.596L999.542 258.561L996.724 257.706L996.995 255.162C996.995 255.162 995.145 255.607 992.681 255.826C990.218 256.044 987.117 258.285 986.508 258.067C985.899 257.849 983.359 257.731 983.359 257.731L984.328 256Z" fill="#E9E9F2"/>
<path d="M987.309 259.585L990.019 257.729L994.275 256.675L995.03 258.892L994.319 260.514H992.521L991.379 259.787L989.856 261.771L987.867 261.577L987.309 259.585Z" fill="#E9E9F2"/>
<path d="M978.468 260.268L981.42 258.561L986.371 260.714C986.371 260.714 985.414 263.148 985.263 263.738C985.112 264.328 982.381 268.167 982.381 268.167L980.833 267.868L980.471 265.873L981.649 263.148L980.988 261.523L979.212 262.849L978.468 260.268Z" fill="#E9E9F2"/>
<path d="M1013.99 228.881L1016.06 228.124L1014.2 226.24L1014.98 225.411C1014.98 225.411 1016.92 224.94 1017.22 224.966C1017.53 224.991 1022.7 226.6 1022.7 226.6L1026.27 223.284C1026.27 223.284 1029.32 223.511 1029.6 223.217C1029.87 222.923 1031.02 221.39 1031.02 221.39L1030.19 220.138L1031.02 218.035L1028.73 219.32L1025.33 218.3L1021.16 215.326L1019.05 213.57L1017.8 214.23L1018.45 215.936C1018.45 215.936 1017.99 218.518 1018 218.75C1018.02 218.982 1016.92 220.457 1016.92 220.457L1016.97 222.232L1014.12 222.035L1013.76 223.533L1011.91 225.412L1012.88 227.094L1012.96 229.032L1013.99 228.881Z" fill="#E9E9F2"/>
<path d="M1019.52 179.227L1021.13 177.788L1020.79 175.354C1020.79 175.354 1022.5 175.182 1022.56 175.961C1022.62 176.74 1024.61 189.19 1024.61 189.19L1027.6 199.2L1023 197.878L1021.68 202.08L1022.01 206.07L1024.39 209.001L1023.84 210.828L1020.79 208.897L1019.41 211.108L1018.31 209L1019.33 205.11L1019.36 201.085L1018.69 198.544L1019.63 193.342L1019.69 188.966L1018.63 187.142L1018.47 183.374L1019.52 179.227Z" fill="#E9E9F2"/>
<path d="M711.362 108.397L684.797 122.276L673.185 124.132L661.422 112.578L675.13 114.731L687.162 114.279L687.116 108.655L650.485 94.674L638.667 88.793L603.274 103.342L585.117 129.191L570.212 138.943L573.872 156.741L586.562 153.443L595.695 169.535L607.974 165.455L610.762 154.778L618.672 152.612L614.866 145.335L610.658 145.233L611.998 136.146L623.912 126.562L627.681 119.08L635.728 120.111L633.149 125.676L623.145 134.04L629.953 148.842L645.067 146.058L649.764 148.69L642.541 150.853L631.756 152.303L633.149 159.836L631.445 162.672L625.465 159.937L622.002 166.13L621.334 172.266L589.297 175.208L584.703 170.565L587.334 165.249L586.463 159.937L579.649 165.661L581.808 177.117L571.963 179.439L558.248 193.851L546.733 195.734L547.613 200.081L539.303 199.56L538.79 203.371L547.764 209.518L547.87 221.278H521.932L523.677 245.985L542.709 248.05L553.85 239.904L554.577 232.625L563.961 227.365L566.597 221.278L573.867 223.087L583.673 218.905L598.531 230.515L606.319 239.23L603.979 244.598L612.976 235.153L607.763 230.155L598.893 222.779L593.991 216.223L595.799 212.662L605.444 220.711L616.067 227.522L618.082 236.239L622.261 239.799L625.665 246.926H629.174L631.803 243.669L629.741 237.836L627.681 234.123L631.858 232.009L640.268 232.625L646.56 231.286L645.949 226.675L647.437 220.659L652.442 212.354L657.807 209.001L662.814 216.53L670.859 215.396L668.592 210.443L678.961 206.576L677.567 211.58L677.777 216.944L686.496 222.93L689.95 227.73L682.416 230.977L669.214 228.039L661.163 227.47L639.388 236.651L649.347 248.827L661.622 250.172L671.065 247.075L668.381 259.917L665.276 267.886L666.778 278.801L675.605 291.388L686.64 308.616L693.091 322.501L695.57 331.58L711.25 327.965L728.588 318.574L741.945 310.728L749.637 299.023L740.709 293.454L738.18 287.156L729.364 292.732L719.404 289.53L711.362 277.502L713.159 271.572L717.6 272.71L727.454 282.72L733.129 284.214L737.616 282.51L711.362 108.397Z" fill="#E9E9F2"/>
<path d="M666.778 278.801L665.621 280.839H664.417L660.179 275.042L666.151 287.881L669.986 294.285L671.563 298.448L675.071 305.577L676.177 311.726L680.034 315.177L682.571 322.76L689.437 327.563L695.363 333.493L694.231 335.918L698.421 339.595L717.342 336.594L720.099 335.082L721.37 338.037L717.505 347.974L684.273 385.138L682.111 396.538L686.132 409.44L686.548 423.888L682.007 430.489L667.454 440.646L669.881 450.711L667.924 457.21L661.271 460.256L656.57 474.185L642.489 489.406L630.673 491.211L623.398 492.759L613.08 491.519L612.257 482.389L601.472 460.667L598.531 446.89L590.27 434.148L593.739 420.165L598.227 411.605L592.443 390.662L582.85 376.419L585.221 363.782L580.945 359.286L571.858 359.239L568.41 354.238L558.677 354.121L541.266 357.333L525.947 359.601L498.392 332.924L500.151 311.982L500.578 297.001L507.644 285.438L518.152 276.334L523.004 263.899L530.376 258.43L534.456 251.364L545.96 254.613L566.954 247.439L585.378 245.788L589.767 254.714L588.011 259.611L610.036 268.904L618.858 270.504L619.274 265.241L627.163 263.023L645.171 268.744L659.479 268.482L665.276 267.886L666.778 278.801Z" fill="#E9E9F2"/>
<path d="M698.812 429.419L698.737 440.118L695.267 447.494L697.703 458.57L705.749 459.152L710.987 447.422L714.085 438.126L716.816 428.465L714.97 414.883L709.385 421.375L698.812 429.419Z" fill="#E9E9F2"/>
<path d="M318.137 464.723L315.398 494.256L310.528 505.325L310.454 519.49L313.696 523.114L309.199 544.658L307.875 555.645L313.405 563.699L322.334 575.352L337.758 575.944L328.314 567.083L325.654 560.666L334.436 548.199L331.851 540.816L336.795 532.842L340.778 523.258L340.117 517.129L348.46 511.816L361.666 508.052L366.092 500.968L362.994 492.856L374.135 494.474L385.868 481.051L393.764 465.772L392.953 459.278L397.282 455.222L407.708 451.821L413.902 451.385L420.769 441.935L424.906 427.548L425.124 416.775L429.406 412.864L433.98 407.923L437.816 402.166L435.533 391.687L427.483 387.702L416.049 384.155L406.382 381.87L400.033 378.259L394.865 376.853L389.706 375.598L386.753 368.15L377.386 356.707L365.422 355.306L346.905 341.434L335.615 340.03L327.645 338.486L318.933 333.617L307.429 338.409L299.39 347.915L298.499 359.916L293.3 368.958L286.584 377.982L287.464 382.579C287.464 382.579 285.065 390.686 285.508 391.426C285.951 392.167 300.045 415.483 300.045 415.483L304.475 424.377L313.18 429.473L320.561 435.518C320.561 435.518 321.01 453.369 321.001 454.926C320.992 456.483 318.137 464.723 318.137 464.723Z" fill="#E9E9F2"/>
<path d="M299.095 351.891L300.097 347.08L293.8 342.079L290.103 341.83L286.63 343.456L283.213 343.701L278.737 339.178L276.817 336.299L277.187 331.872L278.728 324.999L276.891 322.506L274.003 319.559L268.932 320.523L261.484 321.287L261.005 319.56L262.567 316.069L261.896 313.95L262.428 310.69L264.128 310.026L264.498 306.19L267.349 302.336L266.046 301.026L259.992 301.248L255.931 302.36L254.316 306.038L252.805 311.632L245.236 312.019C245.236 312.019 242.509 313.655 241.77 312.837C241.031 312.019 236.238 308.256 236.238 308.256L232.171 301.515L230.849 296.823L231.68 291.579L232.918 286.136L231.439 281.453L200.001 292.652L205.095 298.629L205.942 303.787L206.609 308.588C206.609 308.588 215.086 313.01 215.975 313.457C216.865 313.904 229.422 319.595 230.311 319.939C231.201 320.283 237.012 320.947 237.012 320.947L241.211 319.431L246.635 322.53L249.166 325.597C249.166 325.597 254.894 327.331 256.266 327.993C257.638 328.655 264.058 329.507 264.058 329.507L270.24 336.76L270.216 339.873L273.28 341.353L275.341 341.939L277.371 344.747L280.435 345.777L283.827 346.847L286.379 348.801L288.783 348.439L288.11 346.374L290.433 343.931L293.607 344.189L299.095 351.891Z" fill="#E9E9F2"/>
<path d="M231.438 281.455L233.724 277.693L239.801 275.366L244.471 272.141C244.471 272.141 251.265 272.872 251.573 273.032C251.881 273.192 256.594 274.089 257.039 274.291C257.484 274.493 259.376 274.407 259.376 274.407L256.269 270.491C256.269 270.491 259.145 270.207 259.791 270.222C260.437 270.236 267.153 270.096 267.153 270.096L271.222 271.691L272.465 272.822L276.523 271.786C276.523 271.786 279.939 275.061 280.142 275.412C280.345 275.764 280.14 280.055 280.14 280.055L282.93 284.226L283.81 286.138L285.305 286.844L286.11 288.264C286.11 288.264 287.237 289.26 287.436 289.062C287.634 288.864 289.281 285.814 289.281 285.814L286.831 276.903L284.79 267.129L298.864 254.697L303.433 248.566L301.247 244.199L302.129 236.887L303.015 241.833L305.899 240.478L309.629 232.707L319.101 227.809L320.354 221.024L331.273 215.19L341.906 212.695L334.748 219.86L349.95 213.808L357.32 212.019L340.401 207.455L337.034 196.541L338.796 192.773L359.977 188.054L368.32 185.324L348.396 163.561L339.983 146.805L332.084 155.344L324.046 153.818L322.647 146.36L317.108 140.355L297.186 135.294L295.928 152.118L293.207 156.4L299.031 157.877L300.216 166.874L291.283 171.752L293.719 184.512L284.521 183.405L281.245 173.744L275.562 169.904L247.967 159.5L240.815 150.713C240.815 150.713 244.649 138.03 245.83 137.584C247.011 137.138 256.161 129.394 256.161 129.394L264.712 124.004L267.957 114.194L279.106 114.414L283.904 107.919L281.173 103.422L284.196 98.9149L273.124 95.3749L270.839 101.794L266.635 109.544L262.651 100.912L255.272 98.6229L248.265 95.2269L242.36 82.5349L248.557 77.8879L255.048 71.2449L240.292 69.2529L238.523 79.2179L234.463 89.9849L243.984 99.8749L238.299 108.361L222.069 106.888L201.699 101.062C201.699 101.062 189.967 105.043 187.312 106.221C184.657 107.399 157.425 97.6639 157.425 97.6639L139.936 97.3709L130.788 90.5029L111.974 98.2549L44.7449 89.4719L22.5859 90.5639L12.9049 98.4749L5.10688 101.213L10.4719 106.517L18.1029 111.612L23.6459 113.642L13.8609 116.26L4.60688 116.892L0.983887 119.952L4.82989 122.942L18.9239 124.713L23.6459 123.901L23.7499 128.838L10.7699 133.643L6.70189 140.5L12.4999 147.767L18.4439 146.365L22.3899 154.011L36.5889 153.784L10.1089 171.656L11.9859 173.956L47.8839 154.898L50.4629 148.285C50.4629 148.285 55.4559 151.578 56.0399 151.427C56.6239 151.276 65.3729 146.406 65.3729 146.406L66.7719 142.165C66.7719 142.165 84.5889 147.294 88.1689 148.326C91.7499 149.358 109.686 161.058 109.686 161.058L129.274 180.276L144.736 208.973L144.289 234.068C144.289 234.068 153.173 249.567 154.213 251.334C155.253 253.101 165.287 258.819 165.287 258.819L171.293 270.157C171.293 270.157 177.675 282.18 180.188 283.621C182.7 285.062 191.738 296.535 191.738 296.535L183.73 281.045L177.049 272.39L177.311 266.174L200 292.662L231.438 281.455Z" fill="#E9E9F2"/>
<path d="M329.992 56.2031C329.992 56.2031 345.569 54.0101 347.08 54.2041C348.591 54.3981 361.76 60.8751 361.76 60.8751C361.76 60.8751 373.805 76.9261 373.805 79.3041C373.805 81.6821 377.743 111.059 377.743 111.059L390.114 136.12L403.077 144.377L410.493 145.789L420.118 122.85L434.68 116.402L447.603 105.968L476.601 93.3811L486.208 70.5931L482.885 51.5691L484.033 38.5081L501.461 21.7931L512.818 15.8351L492.774 16.4251L481.707 17.8461L480.734 8.80206L459.191 0.414062L427.457 0.831062L393.472 3.56306L347.336 18.6821L329.99 27.0461L316.394 39.4561L329.992 56.2031Z" fill="#E9E9F2"/>
<path d="M144.951 66.667L140.3 79.95L149.712 87.812L157.794 81.605L166.651 91.018L171.468 98.825C171.468 98.825 181.618 98.953 186.366 98.825C191.114 98.697 205.956 96.286 207.733 96.223C209.51 96.16 222.775 95.449 222.775 95.449L210.144 87.769L206.214 79.51L206.498 71.039L197.03 74.586L198.531 83.771L190.007 77.683L177.054 73.857L166.755 68.437L152.92 66.889L144.951 66.667Z" fill="#E9E9F2"/>
<path d="M149.828 53.883C152.264 53.549 161.278 58.316 163.88 59.365C166.482 60.414 182.868 62.242 182.868 62.242L198.473 63.292L200.001 53.866L185.804 51.838L186.627 42.209L176.78 42.477L162.221 47.239L149.828 53.883Z" fill="#E9E9F2"/>
<path d="M203.914 46.0801C207.827 46.5221 217.677 59.0821 219.614 59.8051C221.551 60.5281 237.929 60.0841 237.929 60.0841L227.636 52.3851L214.554 49.5671L203.914 46.0801Z" fill="#E9E9F2"/>
<path d="M215.355 76.0802C216.849 75.5232 225.311 84.5442 225.311 84.5442L233.173 82.7752L238.523 79.2152L230.188 69.1572L215.355 76.0802Z" fill="#E9E9F2"/>
<path d="M203.865 30.4673L204.675 41.2283L226.198 44.4733L219.39 35.6143L203.865 30.4673Z" fill="#E9E9F2"/>
<path d="M235.167 52.4988L244.352 54.9878L250.492 64.8438L285.194 66.6098L290.727 61.6318L274.676 58.4748L262.282 59.7458L251.71 51.8388L238.375 47.1318L235.167 52.4988Z" fill="#E9E9F2"/>
<path d="M236.66 23.3353C236.66 23.3353 280.749 8.98428 281.912 8.35228C283.075 7.72028 305.487 4.48828 305.487 4.48828L329.696 5.38428L346.516 8.89128L351.382 10.4403L313.393 30.6983L301.698 43.3973L293.571 47.6293L294.284 53.7173L269.429 54.2863L260.73 53.3023L257.556 50.7223L263.01 45.9473L257.556 43.4283L252.929 41.9823L237.544 31.1363L235.219 25.8803L236.66 23.3353Z" fill="#E9E9F2"/>
<path d="M229.075 37.8882L232.231 43.3142L238.763 43.4742L239.975 40.1582L233.724 37.9402L229.075 37.8882Z" fill="#E9E9F2"/>
<path d="M262.947 70.7559L256.854 80.0609L259.185 90.6489C259.185 90.6489 273.369 93.7049 274.214 93.5579C275.06 93.4109 294.481 92.7249 295.631 93.2719C296.781 93.8199 307.036 103.17 308.87 104.674C310.704 106.179 315.237 109.987 315.237 109.987C315.237 109.987 308.048 116.488 307.836 117.53C307.625 118.572 304.867 122.489 304.867 122.489L296.031 120.476L295.375 124.408L302.276 125.994L308.366 124.849L314.568 128.987L329.099 137.178L334.378 138.354L330.907 133.414L325.964 129.024L327.924 129.05L333.529 132.011L338.327 134.001L337.478 124.485L331.425 119.947L329.79 115.626L331.647 113.932L338.62 120.386L343.012 122.526L350.98 113.824L338.432 106.217L332.009 103.787L327.408 101.756L329.656 99.1359L331.1 95.5889L318.069 86.4429L310.981 86.1099L307.554 81.2799L301.737 77.2539L295.001 72.2779L286.382 71.3199L274.849 73.0999L268.293 71.3199L262.947 70.7559Z" fill="#E9E9F2"/>
<path d="M268.626 117.725L268.147 125.446L265.931 128.452L269.345 129.049L272.735 127.455L270.912 131.198H274.244C274.244 131.198 277.814 126.373 278.774 127.215C279.733 128.057 285.529 130.534 285.529 130.534L289.329 129.049L283.207 125.443L278.555 122.338L275.229 121.342L268.626 117.725Z" fill="#E9E9F2"/>
<path d="M297.503 107.079L302.627 109.893L305.475 107.623L303.38 104.028L297.884 104.464L297.503 107.079Z" fill="#E9E9F2"/>
<path d="M276.454 135.542L281.404 132.109L283.208 134.948L279.078 138.097L276.454 135.542Z" fill="#E9E9F2"/>
<path d="M225.149 99.7609L235.493 103.356L238.6 101.756L236.16 97.9339L238.653 97.1059L236.678 95.7399L233.226 96.7759L229.907 95.3379L225.149 99.7609Z" fill="#E9E9F2"/>
<path d="M358.429 201.554L364.185 190.49L369.278 187.835L368.19 190.371L366.549 194.03C366.549 194.03 376.738 199.343 377.031 199.934C377.324 200.524 378.506 205.32 378.506 205.32L376.729 207.609L368.91 205.841L363.305 203.774L357.326 203.549L358.429 201.554Z" fill="#E9E9F2"/>
<path d="M276.23 298.961L285.603 299.552L294.449 303.165L303.091 306.853L308.105 306.191L303.899 302.946L295.194 299.255L287.52 296.082L279.546 295.939H274.444L276.23 298.961Z" fill="#E9E9F2"/>
<path d="M297.185 314.455L301.614 313.574L300.041 311.633L294.825 312.32L297.185 314.455Z" fill="#E9E9F2"/>
<path d="M309.726 312.906C310.689 312.838 317.698 314.305 317.698 314.305L318.735 312.171L325.519 311.506L326.56 309.304L321.09 307.371L313.124 306.116L311.355 306.783L313.415 310.468L308.64 310.222L309.726 312.906Z" fill="#E9E9F2"/>
<path d="M474.927 119.406L486.044 129.921C486.044 129.921 489.477 131.494 490.555 131.633C491.633 131.773 499.376 128.786 499.376 128.786L508.814 123.171L504.919 117.382L499.629 114.893L490.794 117.189L484.743 120.068L481.205 116.008L477.662 115.054L474.927 119.406Z" fill="#E9E9F2"/>
<path d="M523.979 175.843L520.182 176.027L520.628 179.565L523.427 180.636L519.963 185.137L522.507 187.798L526.749 186.352L529.297 184.548L531.917 184.437L532.563 176.808L535.351 175.102L532.541 171.276L528.667 170.897L525.342 172.012L523.979 175.843Z" fill="#E9E9F2"/>
<path d="M537.094 155.26L533.335 164.231C533.335 164.231 535.931 168.853 536.804 169.698C537.677 170.543 541.497 173.834 541.497 173.834L543.234 177.654L539.392 180.804L536.793 185.95L542.908 187.797L536.152 193.094L557.872 189.551V186.351L559.703 183.278L554.722 180.338L549.355 173.476L544.347 167.419L547.411 160.359L540.914 158.589L542.521 155.71L537.094 155.26Z" fill="#E9E9F2"/>
<path d="M579.888 232.897C580.132 233.5 581.262 238.951 581.262 238.951L585.371 239.14V230.168L579.888 232.897Z" fill="#E9E9F2"/>
<path d="M735.556 79.2321L750.539 65.1691L778.354 54.3151L777.323 50.8501L763.819 54.7651L746.549 57.8621L730.465 73.0621L721.611 84.2031L733.787 91.5861L742.099 90.8111L735.297 84.0131L735.556 79.2321Z" fill="#E9E9F2"/>
<path d="M609.129 52.5581C609.849 51.0291 616.54 40.4301 616.54 40.4301L625.536 48.1211L634.613 45.1351L623.709 38.6571L617.459 35.0641L612.583 28.8101L601.853 30.3721L589.229 31.3511C589.229 31.3511 590.729 38.7381 591.419 39.1301C592.109 39.5221 599.749 45.3841 599.749 45.3841L609.129 52.5581Z" fill="#E9E9F2"/>
<path d="M620.943 31.5219L631.07 35.1709L638.487 32.4629L642.301 28.7539L633.063 25.7639L620.943 25.4199H611.699L620.943 31.5219Z" fill="#E9E9F2"/>
<path d="M973.211 367.803L973.713 371.525L974.086 374.544L974.906 376.637L976.347 377.119L975.492 374.095V372.461L977.676 373.762L978.751 373.296L977.799 372.461L976.994 371.235L978.096 369.727V368.696L976.531 369.082L974.906 370.124V367.675V366.08L972.888 365.379L973.211 367.803Z" fill="#E9E9F2"/>
<path d="M975.437 384.952L980.595 385.485L984.192 387.371L984.833 386.347L983.803 384.722L980.595 383.44H975.492L974.324 384.397L975.437 384.952Z" fill="#E9E9F2"/>
<path d="M934.028 401.099L933.587 402.876L935.138 403.209C935.138 403.209 935.802 402.545 935.885 402.391C935.968 402.237 936.288 401.099 936.288 401.099L935.455 400.86L934.028 401.099Z" fill="#E9E9F2"/>
<path d="M936.768 401.535C936.887 401.506 938.072 401.413 938.072 401.413L939.589 402.315L938.721 403.805L937.581 404.223L936.625 403.647L935.886 402.391L936.768 401.535Z" fill="#E9E9F2"/>
<path d="M938.999 400.761L940.512 401.414L941.131 402.611L942.022 403.177L943.349 402.903L943.795 402.035V401.099L942.394 400.973H941.357L940.491 400.504L939.589 400.334L938.999 400.761Z" fill="#E9E9F2"/>
<path d="M943.298 404.894C943.324 405.079 943.794 406.434 943.794 406.434H944.991L946.831 407.086L948.34 407.611L949.752 407.036L948.885 405.932L948.079 404.894L946.967 404.528L945.328 404.472L943.298 404.894Z" fill="#E9E9F2"/>
<path d="M945.64 401.872L947.429 402.877C947.429 402.877 949.104 402.906 949.213 403.037C949.323 403.168 950.855 403.183 950.957 403.037C951.059 402.891 953.48 402.693 953.48 402.693L953.959 401.421L952.741 401.686L951.75 401.873L951.015 401.686L950.665 401.1L949.252 400.861L947.703 400.991L945.64 401.872Z" fill="#E9E9F2"/>
<path d="M955.558 400.973L954.883 402.035L955.221 402.391L956.389 401.682L957.075 401.872L957.326 400.973L956.746 400.334L955.558 400.973Z" fill="#E9E9F2"/>
<path d="M958.222 401.231H960.437L961.464 400.504L963.09 400.334L963.719 400.841L962.95 401.755H961.831L960.235 402L958.451 401.872L958.222 401.231Z" fill="#E9E9F2"/>
<path d="M966.768 398.685L966.087 399.824L968.206 399.878L969.692 399.542L969.513 398.475L966.768 398.685Z" fill="#E9E9F2"/>
<path d="M968.428 385.005L969.34 386.42L971.138 386.855L972.888 386.379L972.301 384.643L970.226 384.132L968.428 385.005Z" fill="#E9E9F2"/>
<path d="M957.703 377.498L957.093 379.134L958.809 378.976L959.561 378.316V377.498H957.703Z" fill="#E9E9F2"/>
<path d="M948.683 313.435L951.436 310.785L954.101 315.978L951.557 322.456L952.999 327.438L949.178 327.824L947.247 325.055L946.133 319.965L948.055 319.304L949.8 316.071L948.683 313.435Z" fill="#E9E9F2"/>
<path d="M953.272 352.507L955.875 348.413L960.194 348.358L960.08 352.892L964.011 355.549L965.281 350.784L968.551 350.125L966.613 341.659L959.695 346.915C959.695 346.915 957.49 346.002 956.741 345.97C955.992 345.938 952.522 348.715 952.522 348.715L953.272 352.507Z" fill="#E9E9F2"/>
<path d="M938.975 345.248C939.993 344.7 943.503 340.873 943.503 340.873L945.453 339.392L945.225 336.811L942.945 339.242L938.999 342.6L936.288 345.971L938.975 345.248Z" fill="#E9E9F2"/>
<path d="M953.109 332.029L953.666 335.844L952.999 339.003L955.487 338.12L957.371 335.901L953.109 332.029Z" fill="#E9E9F2"/>
<path d="M960.914 332.362L962.295 334.964L961.187 336.734L962.021 338.173L962.846 340.827L965.172 339.335L963.732 337.179L965.172 335.844L965.118 333.47L964.094 330.813L960.914 332.362Z" fill="#E9E9F2"/>
<path d="M955.809 341.66L957.093 339.003L959.366 337.51L960.415 340.389L957.978 342.155L955.809 341.66Z" fill="#E9E9F2"/>
<path d="M955.103 329.594L957.371 332.31L958.259 334.13H959.859L959.64 330.206H961.117L961.471 327.657H958.699L954.937 327.273L955.103 329.594Z" fill="#E9E9F2"/>
<path d="M947.901 329.15L949.67 334.13L951.557 332.911L951.23 329.87L947.901 329.15Z" fill="#E9E9F2"/>
<path d="M1101.88 537.423L1115.28 525.285L1121.01 515.976L1127.65 518.025L1121.63 528.665L1116.77 533.545L1112.8 539.017L1106.1 539.661L1101.88 537.423Z" fill="#E9E9F2"/>
<path d="M1122.27 492.805L1128.65 501.935L1126.31 511.385L1130.3 514.624V518.944L1132.82 519.518L1136.94 513.571L1136.93 510.763L1139.44 509.581L1141.79 506.183L1142.05 503.894L1139.96 503.577L1138.05 505.005L1135.99 506.162L1132.98 503.26L1131.89 500.743L1128.8 495.172L1124.89 493.427L1122.27 492.805Z" fill="#E9E9F2"/>
<path d="M994.372 393.397L996.773 391.476L997.548 394.63L995.993 397.127L994.372 393.397Z" fill="#E9E9F2"/>
<path d="M947.632 294.292L950.286 289.915L952.501 289.194L952.39 293.178L951.557 296.496L949.788 300.26L946.959 297.093L947.632 294.292Z" fill="#E9E9F2"/>
<path d="M814.69 343.949C814.329 344.054 814.69 352.599 814.69 352.599C814.69 352.599 818.081 354.549 818.258 354.533C818.435 354.517 821.325 351.092 821.325 351.092C821.325 351.092 821.111 348.046 821.031 347.86C820.951 347.674 819.023 343.577 819.023 343.577L815.8 341.187L814.69 343.949Z" fill="#E9E9F2"/>
<path d="M783.606 297.172L779.507 299.542C779.507 299.542 782.085 302.229 782.346 302.639C782.606 303.049 785.959 304.701 785.959 304.701L789.487 302.974L790.426 299.471L783.606 297.172Z" fill="#E9E9F2"/>
<g opacity="0.972826">
<path d="M574.286 200.576C575.965 200.576 577.329 201.939 577.329 203.619C577.329 205.299 575.965 206.663 574.286 206.663C572.606 206.663 571.242 205.299 571.242 203.619C571.242 201.939 572.606 200.576 574.286 200.576Z" fill="#111280"/>
</g>
<path d="M574.286 196.119C578.425 196.119 581.786 199.48 581.786 203.619C581.786 207.758 578.425 211.119 574.286 211.119C570.147 211.119 566.786 207.758 566.786 203.619C566.786 199.48 570.147 196.119 574.286 196.119Z" fill="#111280"/>
<g opacity="0.972826">
<path d="M356.311 392.576C357.991 392.576 359.355 393.939 359.355 395.619C359.355 397.299 357.991 398.663 356.311 398.663C354.631 398.663 353.268 397.299 353.268 395.619C353.268 393.939 354.631 392.576 356.311 392.576Z" fill="#111280"/>
</g>
<path d="M356.311 388.119C360.45 388.119 363.811 391.48 363.811 395.619C363.811 399.758 360.45 403.119 356.311 403.119C352.172 403.119 348.811 399.758 348.811 395.619C348.811 391.48 352.172 388.119 356.311 388.119Z" fill="#111280"/>
<g opacity="0.972826">
<path d="M993.728 453.74C995.408 453.74 996.772 455.104 996.772 456.783C996.772 458.463 995.408 459.827 993.728 459.827C992.048 459.827 990.685 458.463 990.685 456.783C990.685 455.104 992.048 453.74 993.728 453.74Z" fill="#111280"/>
</g>
<path d="M993.728 449.283C997.867 449.283 1001.23 452.644 1001.23 456.783C1001.23 460.922 997.867 464.283 993.728 464.283C989.589 464.283 986.228 460.922 986.228 456.783C986.228 452.644 989.589 449.283 993.728 449.283Z" fill="#111280"/>
<g opacity="0.972826">
<path d="M224.8 225.844C226.48 225.844 227.843 227.208 227.843 228.887C227.843 230.567 226.48 231.931 224.8 231.931C223.12 231.931 221.756 230.567 221.756 228.887C221.756 227.208 223.12 225.844 224.8 225.844Z" fill="#111280"/>
</g>
<path d="M224.8 221.387C228.939 221.387 232.3 224.748 232.3 228.887C232.3 233.026 228.939 236.387 224.8 236.387C220.661 236.387 217.3 233.026 217.3 228.887C217.3 224.748 220.661 221.387 224.8 221.387Z" fill="#111280"/>
<g opacity="0.972826">
<path d="M615.798 333.502C617.478 333.502 618.841 334.866 618.841 336.546C618.841 338.226 617.478 339.589 615.798 339.589C614.118 339.589 612.754 338.226 612.754 336.546C612.754 334.866 614.118 333.502 615.798 333.502Z" fill="#111280"/>
</g>
<path d="M615.798 329.046C619.937 329.046 623.298 332.407 623.298 336.546C623.298 340.685 619.937 344.046 615.798 344.046C611.659 344.046 608.298 340.685 608.298 336.546C608.298 332.407 611.659 329.046 615.798 329.046Z" fill="#111280"/>
<g opacity="0.972826">
<path d="M825.681 227.281C827.36 227.281 828.724 228.645 828.724 230.324C828.724 232.004 827.36 233.368 825.681 233.368C824.001 233.368 822.637 232.004 822.637 230.324C822.637 228.645 824.001 227.281 825.681 227.281Z" fill="#111280"/>
</g>
<path d="M825.681 222.824C829.82 222.824 833.181 226.185 833.181 230.324C833.181 234.463 829.82 237.824 825.681 237.824C821.541 237.824 818.181 234.463 818.181 230.324C818.181 226.185 821.541 222.824 825.681 222.824Z" fill="#111280"/>
</svg>
