<svg width="28" height="28" viewBox="0 0 28 28" fill="none" xmlns="http://www.w3.org/2000/svg">
<g clip-path="url(#clip0_31_11805)" filter="url(#filter0_d_31_11805)">
<path d="M13.5383 1.60996C13.7091 1.19932 14.2909 1.19932 14.4617 1.60996L16.5278 6.57744C16.5998 6.75056 16.7626 6.86885 16.9495 6.88383L22.3123 7.31376C22.7556 7.3493 22.9354 7.90256 22.5976 8.19189L18.5117 11.6919C18.3693 11.8139 18.3071 12.0053 18.3506 12.1876L19.5989 17.4208C19.7021 17.8534 19.2315 18.1954 18.8519 17.9635L14.2606 15.1592C14.1006 15.0615 13.8994 15.0615 13.7394 15.1592L9.14806 17.9635C8.76851 18.1954 8.29788 17.8534 8.40108 17.4208L9.64939 12.1876C9.69289 12.0053 9.6307 11.8139 9.48831 11.6919L5.40241 8.19189C5.06464 7.90256 5.24441 7.3493 5.68773 7.31376L11.0505 6.88383C11.2374 6.86885 11.4002 6.75056 11.4722 6.57744L13.5383 1.60996Z" fill="#E9E9F2"/>
<g clip-path="url(#clip1_31_11805)">
<path d="M13.5383 1.60996C13.7091 1.19932 14.2909 1.19932 14.4617 1.60996L16.5278 6.57744C16.5998 6.75056 16.7626 6.86885 16.9495 6.88383L22.3123 7.31376C22.7556 7.3493 22.9354 7.90256 22.5976 8.19189L18.5117 11.6919C18.3693 11.8139 18.3071 12.0053 18.3506 12.1876L19.5989 17.4208C19.7021 17.8534 19.2315 18.1954 18.8519 17.9635L14.2606 15.1592C14.1006 15.0615 13.8994 15.0615 13.7394 15.1592L9.14806 17.9635C8.76851 18.1954 8.29788 17.8534 8.40108 17.4208L9.64939 12.1876C9.69289 12.0053 9.6307 11.8139 9.48831 11.6919L5.40241 8.19189C5.06464 7.90256 5.24441 7.3493 5.68773 7.31376L11.0505 6.88383C11.2374 6.86885 11.4002 6.75056 11.4722 6.57744L13.5383 1.60996Z" fill="#D9A95D"/>
</g>
</g>
<defs>
<filter id="filter0_d_31_11805" x="0" y="0" width="28" height="28" filterUnits="userSpaceOnUse" color-interpolation-filters="sRGB">
<feFlood flood-opacity="0" result="BackgroundImageFix"/>
<feColorMatrix in="SourceAlpha" type="matrix" values="0 0 0 0 0 0 0 0 0 0 0 0 0 0 0 0 0 0 127 0" result="hardAlpha"/>
<feOffset dy="4"/>
<feGaussianBlur stdDeviation="2"/>
<feComposite in2="hardAlpha" operator="out"/>
<feColorMatrix type="matrix" values="0 0 0 0 0 0 0 0 0 0 0 0 0 0 0 0 0 0 0.25 0"/>
<feBlend mode="normal" in2="BackgroundImageFix" result="effect1_dropShadow_31_11805"/>
<feBlend mode="normal" in="SourceGraphic" in2="effect1_dropShadow_31_11805" result="shape"/>
</filter>
<clipPath id="clip0_31_11805">
<rect width="20" height="20" fill="white" transform="translate(4)"/>
</clipPath>
<clipPath id="clip1_31_11805">
<rect width="20" height="20" fill="white" transform="translate(4)"/>
</clipPath>
</defs>
</svg>
